ply
format ascii 1.0
comment #####################################################################################################
comment  ╔═╗┌─┐┌┐┌┌─┐┬─┐┌─┐┌┬┐┌─┐┌┬┐  ┌┐ ┬ ┬  ╔╗ ┬  ┬ ┬┌┐┌┌┬┐┌─┐┬─┐┌─┐┌─┐┌┬┐                                 
comment  ║ ╦├┤ │││├┤ ├┬┘├─┤ │ ├┤  ││  ├┴┐└┬┘  ╠╩╗│  │ ││││ ││├┤ ├┬┘│ ┬├─┤ │                                  
comment  ╚═╝└─┘┘└┘└─┘┴└─┴ ┴ ┴ └─┘─┴┘  └─┘ ┴   ╚═╝┴─┘└─┘┘└┘─┴┘└─┘┴└─└─┘┴ ┴ ┴                                  
comment #####################################################################################################
comment  MESH METRICS::
comment  Name = , Point Count = 5, Non-Zero Normals = 5
comment #####################################################################################################
element vertex 5
property float x
property float y
property float z
property float nx
property float ny
property float nz
property uchar red
property uchar green
property uchar blue
property uchar alpha
end_header
1.355085 -1.219159 -6.711435 -0.017686196 0.99660707 0.08038482 14 8 0 255
1.222239 -1.279367 -6.550492 -0.017686196 0.99660707 0.08038482 1 0 0 255
1.3898602 -1.232061 -6.5318666 -0.017686196 0.99660707 0.08038482 6 0 0 255
1.4233302 -1.2377946 -6.5646496 -0.017686196 0.99660707 0.08038482 1 1 0 255
1.4949034 -1.2383767 -6.6273446 -0.017686196 0.99660707 0.08038482 11 4 0 255
